<svg width="20" height="20" viewBox="0 0 20 20" fill="none" xmlns="http://www.w3.org/2000/svg">
<path fill-rule="evenodd" clip-rule="evenodd" d="M6.94444 2.5C6.94444 1.11929 8.06373 0 9.44444 0H10.5556C11.9363 0 13.0556 1.11929 13.0556 2.5V2.62319L13.1427 2.53605C14.119 1.55974 15.7019 1.55974 16.6782 2.53605L17.4639 3.32172C18.4402 4.29803 18.4402 5.88095 17.4639 6.85726L17.3767 6.94444H17.5C18.8807 6.94444 20 8.06373 20 9.44444V10.5556C20 11.9363 18.8807 13.0556 17.5 13.0556H17.3768L17.4639 13.1427C18.4402 14.119 18.4402 15.7019 17.4639 16.6783L16.6782 17.4639C15.7019 18.4402 14.119 18.4402 13.1427 17.4639L13.0556 17.3768V17.5C13.0556 18.8807 11.9363 20 10.5556 20H9.44444C8.06373 20 6.94444 18.8807 6.94444 17.5V17.3767L6.8573 17.4639C5.88099 18.4402 4.29808 18.4402 3.32177 17.4639L2.53609 16.6782C1.55978 15.7019 1.55978 14.119 2.53609 13.1427L2.62319 13.0556H2.5C1.11929 13.0556 -6.62274e-08 11.9363 0 10.5556L6.62274e-08 9.44444C6.62274e-08 8.06373 1.11929 6.94444 2.5 6.94444H2.62322L2.5361 6.85732C1.55979 5.88101 1.55979 4.2981 2.5361 3.32179L3.32177 2.53611C4.29809 1.5598 5.881 1.5598 6.85731 2.53611L6.94444 2.62325V2.5ZM9.44444 1.66667C8.98421 1.66667 8.61111 2.03976 8.61111 2.5V3.29386C8.61111 4.53123 7.11508 5.15091 6.24013 4.27596L5.6788 3.71463C5.35336 3.38919 4.82572 3.38919 4.50029 3.71462L3.71461 4.5003C3.38918 4.82574 3.38917 5.35337 3.71461 5.67881L4.27593 6.24013C5.15088 7.11508 4.53121 8.61111 3.29384 8.61111H2.5C2.03976 8.61111 1.66667 8.98421 1.66667 9.44444V10.5556C1.66667 11.0158 2.03976 11.3889 2.5 11.3889H3.29381C4.53117 11.3889 5.15085 12.8849 4.2759 13.7599L3.71461 14.3212C3.38917 14.6466 3.38917 15.1742 3.71461 15.4997L4.50028 16.2853C4.82572 16.6108 5.35335 16.6108 5.67879 16.2853L6.24013 15.724C7.11508 14.8491 8.61111 15.4687 8.61111 16.7061V17.5C8.61111 17.9602 8.98421 18.3333 9.44444 18.3333H10.5556C11.0158 18.3333 11.3889 17.9602 11.3889 17.5V16.7062C11.3889 15.4688 12.8849 14.8491 13.7599 15.7241L14.3212 16.2854C14.6467 16.6108 15.1743 16.6108 15.4997 16.2854L16.2854 15.4997C16.6108 15.1743 16.6108 14.6467 16.2854 14.3212L15.724 13.7599C14.8491 12.8849 15.4688 11.3889 16.7061 11.3889H17.5C17.9602 11.3889 18.3333 11.0158 18.3333 10.5556V9.44444C18.3333 8.98421 17.9602 8.61111 17.5 8.61111L16.7061 8.61111C15.4687 8.61111 14.8491 7.11508 15.724 6.24013L16.2854 5.67875C16.6108 5.35331 16.6108 4.82567 16.2854 4.50023L15.4997 3.71456C15.1743 3.38912 14.6466 3.38912 14.3212 3.71456L13.7599 4.2759C12.8849 5.15084 11.3889 4.53118 11.3889 3.2938V2.5C11.3889 2.03976 11.0158 1.66667 10.5556 1.66667H9.44444ZM10 7.77778C8.7727 7.77778 7.77778 8.7727 7.77778 10C7.77778 11.2273 8.7727 12.2222 10 12.2222C11.2273 12.2222 12.2222 11.2273 12.2222 10C12.2222 8.7727 11.2273 7.77778 10 7.77778ZM6.11111 10C6.11111 7.85223 7.85223 6.11111 10 6.11111C12.1478 6.11111 13.8889 7.85223 13.8889 10C13.8889 12.1478 12.1478 13.8889 10 13.8889C7.85223 13.8889 6.11111 12.1478 6.11111 10Z" fill="#4A545E"/>
</svg>
