<svg width="20" height="20" viewBox="0 0 20 20" fill="none" xmlns="http://www.w3.org/2000/svg">
<path fill-rule="evenodd" clip-rule="evenodd" d="M1.15222 3.29715C1.40235 2.96698 1.87277 2.9021 2.20293 3.15222L18.7029 15.6522C19.0331 15.9023 19.098 16.3728 18.8479 16.7029C18.5977 17.0331 18.1273 17.098 17.7971 16.8479L15.1239 14.8227C13.736 15.9875 11.9716 17 10 17C7.96561 17 6.15394 15.9216 4.75442 14.7193C3.34238 13.5062 2.25325 12.084 1.65121 11.2181C1.64141 11.204 1.6315 11.1898 1.62152 11.1755C1.47636 10.9677 1.31562 10.7376 1.23716 10.4211C1.1734 10.1639 1.1734 9.83615 1.23716 9.57895C1.31562 9.26247 1.47636 9.03236 1.62151 8.82456C1.6315 8.81027 1.64141 8.79608 1.65121 8.78198C2.10408 8.13059 2.83071 7.16722 3.7615 6.21479L1.29715 4.34786C0.966982 4.09773 0.902096 3.62731 1.15222 3.29715ZM4.96754 7.12846C4.05257 8.04214 3.32993 8.99511 2.88281 9.63823C2.79057 9.7709 2.74722 9.8343 2.71813 9.88477C2.69921 9.9176 2.69581 9.92901 2.69358 9.9379C2.69358 9.9379 2.69255 9.94377 2.69166 9.95221C2.69029 9.96517 2.68934 9.98169 2.68934 10C2.68934 10.0184 2.69029 10.0349 2.69166 10.0479C2.69255 10.0563 2.69358 10.0622 2.69358 10.0622C2.69581 10.0711 2.69921 10.0825 2.71813 10.1153C2.74721 10.1658 2.79057 10.2292 2.88281 10.3618C3.44945 11.1769 4.45534 12.4848 5.73189 13.5815C7.02097 14.6889 8.49148 15.5 10 15.5C11.3677 15.5 12.702 14.8331 13.8936 13.8906L11.8625 12.3519C11.3512 12.7572 10.7039 13 10 13C8.34319 13 7.00004 11.6569 7.00004 10C7.00004 9.59063 7.08238 9.19966 7.23133 8.84345L4.96754 7.12846ZM8.51149 9.81327C8.50393 9.87441 8.50004 9.93673 8.50004 10C8.50004 10.8285 9.17162 11.5 10 11.5C10.2068 11.5 10.4038 11.4583 10.5831 11.3827L8.51149 9.81327ZM10 4.50004C9.39514 4.50004 8.79564 4.62985 8.20714 4.86027C7.82144 5.01129 7.38634 4.82105 7.23532 4.43535C7.0843 4.04964 7.27455 3.61454 7.66025 3.46352C8.3925 3.17681 9.17781 3.00004 10 3.00004C12.0345 3.00004 13.8461 4.07848 15.2457 5.28082C16.6577 6.49391 17.7468 7.91603 18.3489 8.78198C18.3587 8.79608 18.3686 8.81027 18.3786 8.82456C18.5237 9.03236 18.6845 9.26247 18.7629 9.57895C18.8267 9.83615 18.8267 10.1639 18.7629 10.4211C18.6845 10.7376 18.5237 10.9677 18.3786 11.1755C18.3686 11.1898 18.3587 11.204 18.3489 11.2181C18.2367 11.3794 18.1083 11.5591 17.9647 11.7524C17.7177 12.0849 17.2479 12.1541 16.9154 11.9071C16.5829 11.6601 16.5136 11.1903 16.7607 10.8578C16.8942 10.678 17.0134 10.5112 17.1173 10.3619C17.2095 10.2292 17.2529 10.1658 17.282 10.1153C17.3009 10.0825 17.3043 10.0711 17.3065 10.0622C17.3065 10.0622 17.3075 10.0563 17.3084 10.0479C17.3098 10.0349 17.3107 10.0184 17.3107 10C17.3107 9.98169 17.3098 9.96517 17.3084 9.95221C17.3075 9.94377 17.3065 9.9379 17.3065 9.9379C17.3043 9.92901 17.3009 9.91759 17.282 9.88477C17.2529 9.8343 17.2095 9.7709 17.1173 9.63823C16.5506 8.8232 15.5447 7.5153 14.2682 6.4186C12.9791 5.31115 11.5086 4.50004 10 4.50004Z" fill="#272E35"/>
</svg>
