<svg width="10" height="10" viewBox="0 0 10 10" fill="none" xmlns="http://www.w3.org/2000/svg">
<path fill-rule="evenodd" clip-rule="evenodd" d="M4.99995 0.200439C5.33132 0.200439 5.59995 0.469069 5.59995 0.800439V4.40054H9.19995C9.53132 4.40054 9.79995 4.66917 9.79995 5.00054C9.79995 5.33191 9.53132 5.60054 9.19995 5.60054H5.59995V9.20044C5.59995 9.53181 5.33132 9.80044 4.99995 9.80044C4.66858 9.80044 4.39995 9.53181 4.39995 9.20044V5.60054H0.799951C0.46858 5.60054 0.199951 5.33191 0.199951 5.00054C0.199951 4.66917 0.46858 4.40054 0.799951 4.40054H4.39995V0.800439C4.39995 0.469069 4.66858 0.200439 4.99995 0.200439Z" fill="#272E35"/>
</svg>
