<svg width="20" height="20" viewBox="0 0 20 20" fill="none" xmlns="http://www.w3.org/2000/svg">
<g clip-path="url(#clip0_826_18969)">
<path d="M1.25 0H3.75C4.44036 0 5 0.559644 5 1.25V3.75C5 4.44036 4.44036 5 3.75 5H1.25C0.559644 5 0 4.44036 0 3.75V1.25C0 0.559644 0.559644 0 1.25 0ZM8.75 15H11.25C11.9404 15 12.5 15.5596 12.5 16.25V18.75C12.5 19.4404 11.9404 20 11.25 20H8.75C8.05964 20 7.5 19.4404 7.5 18.75V16.25C7.5 15.5596 8.05964 15 8.75 15ZM12.5 5V11.25C12.5 11.9404 11.9404 12.5 11.25 12.5H8.75C8.05964 12.5 7.5 11.9404 7.5 11.25V1.25C7.5 0.559644 8.05964 0 8.75 0H18.75C19.4404 0 20 0.559644 20 1.25V3.75C20 4.44036 19.4404 5 18.75 5H12.5Z" fill="#333333"/>
<rect x="-5.625" y="-5" width="31.875" height="33.75" fill="#FF5A00"/>
<path fill-rule="evenodd" clip-rule="evenodd" d="M11.0383 6.43172V7.8849C10.2976 6.89253 9.11413 6.25 7.78059 6.25C6.10255 6.25 4.66214 7.26739 4.04253 8.71897V8.66413V6.44468H1.875V14.2712H4.04253V11.906C4.66214 13.3576 6.10255 14.375 7.78059 14.375C9.11413 14.375 10.2976 13.7325 11.0383 12.7401V14.2452H13.1669V11.896H14.1274L15.6849 14.2452H18.2028L16.3515 11.5448C16.801 11.3438 17.2018 11.0499 17.476 10.6629C17.9303 10.0399 17.9514 9.53375 17.9514 8.92087C17.9514 8.55624 17.8791 8.22138 17.7343 7.91628C17.5972 7.61118 17.403 7.35073 17.1516 7.13493C16.9078 6.91169 16.6107 6.74054 16.2603 6.62147C15.9175 6.49497 15.5404 6.43172 15.1291 6.43172H11.0383ZM9.3448 9.46627L11.0383 8.94014V11.6377L9.36286 11.1245C9.06785 11.6982 8.47002 12.0907 7.78053 12.0907C6.79848 12.0907 6.00237 11.2945 6.00237 10.3125C6.00237 9.33045 6.79848 8.53434 7.78053 8.53434C8.45623 8.53434 9.04391 8.91124 9.3448 9.46627ZM14.7374 8.35264H13.1669V10.1812H14.7374C15.0421 10.1812 15.2859 10.0993 15.4687 9.93559C15.6591 9.77188 15.7544 9.5598 15.7544 9.29935C15.7544 9.0389 15.6591 8.76192 15.4687 8.59821C15.2859 8.4345 15.0421 8.35264 14.7374 8.35264Z" fill="white"/>
</g>
<defs>
<clipPath id="clip0_826_18969">
<rect width="20" height="20" fill="white"/>
</clipPath>
</defs>
</svg>
