<svg width="18" height="18" viewBox="0 0 18 18" fill="none" xmlns="http://www.w3.org/2000/svg">
<path fill-rule="evenodd" clip-rule="evenodd" d="M6 1.5C4.61929 1.5 3.5 2.61929 3.5 4C3.5 5.38071 4.61929 6.5 6 6.5C7.38071 6.5 8.5 5.38071 8.5 4C8.5 2.61929 7.38071 1.5 6 1.5ZM2 4C2 1.79086 3.79086 0 6 0C8.20914 0 10 1.79086 10 4C10 6.20914 8.20914 8 6 8C3.79086 8 2 6.20914 2 4ZM11.25 0.75C11.25 0.335786 11.5858 0 12 0C14.2091 0 16 1.79086 16 4C16 6.20914 14.2091 8 12 8C11.5858 8 11.25 7.66421 11.25 7.25C11.25 6.83579 11.5858 6.5 12 6.5C13.3807 6.5 14.5 5.38071 14.5 4C14.5 2.61929 13.3807 1.5 12 1.5C11.5858 1.5 11.25 1.16421 11.25 0.75ZM0 15.625C0 12.5184 2.5184 10 5.625 10H6.375C9.4816 10 12 12.5184 12 15.625C12 16.9367 10.9367 18 9.625 18H2.375C1.06332 18 0 16.9367 0 15.625ZM5.625 11.5C3.34683 11.5 1.5 13.3468 1.5 15.625C1.5 16.1082 1.89175 16.5 2.375 16.5H9.625C10.1082 16.5 10.5 16.1082 10.5 15.625C10.5 13.3468 8.65317 11.5 6.375 11.5H5.625ZM11.5 10.75C11.5 10.3358 11.8358 10 12.25 10H12.375C15.4816 10 18 12.5184 18 15.625C18 16.9367 16.9367 18 15.625 18H14C13.5858 18 13.25 17.6642 13.25 17.25C13.25 16.8358 13.5858 16.5 14 16.5H15.625C16.1082 16.5 16.5 16.1082 16.5 15.625C16.5 13.3468 14.6532 11.5 12.375 11.5H12.25C11.8358 11.5 11.5 11.1642 11.5 10.75Z" fill="#FF5A00"/>
</svg>
