<svg width="18" height="18" viewBox="0 0 18 18" fill="none" xmlns="http://www.w3.org/2000/svg">
<path fill-rule="evenodd" clip-rule="evenodd" d="M0 2.75C0 1.23122 1.23122 0 2.75 0H15.25C16.7688 0 18 1.23122 18 2.75V15.25C18 16.7688 16.7688 18 15.25 18H2.75C1.23122 18 0 16.7688 0 15.25V2.75ZM2.75 1.5C2.05964 1.5 1.5 2.05964 1.5 2.75V15.25C1.5 15.9404 2.05964 16.5 2.75 16.5H15.25C15.9404 16.5 16.5 15.9404 16.5 15.25V2.75C16.5 2.05964 15.9404 1.5 15.25 1.5H2.75ZM9 4C9.41421 4 9.75 4.33579 9.75 4.75V13.25C9.75 13.6642 9.41421 14 9 14C8.58579 14 8.25 13.6642 8.25 13.25V4.75C8.25 4.33579 8.58579 4 9 4ZM5.75 7C6.16421 7 6.5 7.33579 6.5 7.75V13.25C6.5 13.6642 6.16421 14 5.75 14C5.33579 14 5 13.6642 5 13.25V7.75C5 7.33579 5.33579 7 5.75 7ZM12.25 9C12.6642 9 13 9.33579 13 9.75V13.25C13 13.6642 12.6642 14 12.25 14C11.8358 14 11.5 13.6642 11.5 13.25V9.75C11.5 9.33579 11.8358 9 12.25 9Z" fill="#FF5A00"/>
</svg>
