<svg width="118" height="36" viewBox="0 0 118 36" fill="none" xmlns="http://www.w3.org/2000/svg">
<path d="M113.532 32.7628C112.17 32.5823 111.529 32.1114 111.529 31.0048V30.9184C111.529 29.8118 112.306 29.0977 113.732 29.0977C115.271 29.0977 115.944 29.7648 115.944 31.201V31.3658H114.646C114.646 30.5653 114.397 30.1964 113.74 30.1964H113.668C113.147 30.1964 112.843 30.4789 112.843 30.8713V30.9106C112.843 31.3579 113.027 31.5934 113.941 31.7111C115.303 31.8916 115.992 32.3468 115.992 33.4848V33.5633C115.992 34.7405 115.199 35.4233 113.732 35.4233C112.258 35.4233 111.48 34.7797 111.48 33.3043V33.2337H112.779C112.779 34.0028 113.099 34.3246 113.7 34.3246H113.772C114.373 34.3246 114.67 34.0106 114.67 33.6025V33.5633C114.67 33.1238 114.437 32.8805 113.532 32.7628Z" fill="black"/>
<path d="M108.348 32.7628C106.986 32.5823 106.345 32.1114 106.345 31.0048V30.9184C106.345 29.8118 107.122 29.0977 108.549 29.0977C110.087 29.0977 110.76 29.7648 110.76 31.201V31.3658H109.462C109.462 30.5653 109.214 30.1964 108.557 30.1964H108.485C107.964 30.1964 107.659 30.4789 107.659 30.8713V30.9106C107.659 31.3579 107.844 31.5934 108.757 31.7111C110.119 31.8916 110.809 32.3468 110.809 33.4848V33.5633C110.809 34.7405 110.015 35.4233 108.549 35.4233C107.074 35.4233 106.297 34.7797 106.297 33.3043V33.2337H107.595C107.595 34.0028 107.916 34.3246 108.517 34.3246H108.589C109.19 34.3246 109.486 34.0106 109.486 33.6025V33.5633C109.486 33.1238 109.254 32.8805 108.348 32.7628Z" fill="black"/>
<path d="M101.752 29.1997H105.574V30.2984H103.05V31.6483H105.173V32.7471H103.05V34.2225H105.574V35.3213H101.752V29.1997Z" fill="black"/>
<path d="M100.729 29.1997V35.3213H99.359L97.3396 31.5227L97.3797 32.7549V35.3213H96.1537V29.1997H97.5239L99.5352 32.9982L99.4952 31.766V29.1997H100.729Z" fill="black"/>
<path d="M94.7506 29.1997V35.3213H93.4525V29.1997H94.7506Z" fill="black"/>
<path d="M90.1042 32.7628C88.742 32.5823 88.1009 32.1114 88.1009 31.0048V30.9184C88.1009 29.8118 88.8782 29.0977 90.3046 29.0977C91.8431 29.0977 92.5162 29.7648 92.5162 31.201V31.3658H91.2181C91.2181 30.5653 90.9697 30.1964 90.3126 30.1964H90.2405C89.7196 30.1964 89.4151 30.4789 89.4151 30.8713V30.9106C89.4151 31.3579 89.5994 31.5934 90.5129 31.7111C91.8751 31.8916 92.5643 32.3468 92.5643 33.4848V33.5633C92.5643 34.7405 91.771 35.4233 90.3046 35.4233C88.8301 35.4233 88.0529 34.7797 88.0529 33.3043V33.2337H89.351C89.351 34.0028 89.6715 34.3246 90.2725 34.3246H90.3446C90.9456 34.3246 91.2421 34.0106 91.2421 33.6025V33.5633C91.2421 33.1238 91.0097 32.8805 90.1042 32.7628Z" fill="black"/>
<path d="M84.9912 35.4233C83.2925 35.4233 82.7476 34.717 82.7476 33.3828V29.1997H84.0457V33.3435C84.0457 33.9949 84.254 34.3245 84.9912 34.3245C85.7285 34.3245 85.9448 33.9949 85.9448 33.3435V29.1997H87.243V33.3828C87.243 34.717 86.69 35.4233 84.9912 35.4233Z" fill="black"/>
<path d="M77.9476 29.1997H79.999C80.9766 29.1997 82.0103 29.4587 82.0103 30.8949V31.0518C82.0103 31.6091 81.7619 31.9544 81.4013 32.1584C81.85 32.3703 82.1706 32.7471 82.1706 33.4063V33.5633C82.1706 35.0544 81.0728 35.3213 80.0631 35.3213H77.9476V29.1997ZM80.1032 32.7471H79.2458V34.2225H80.1032C80.4638 34.2225 80.8564 34.0734 80.8564 33.5162V33.4455C80.8564 32.8883 80.4638 32.7471 80.1032 32.7471ZM79.991 30.2984H79.2458V31.6405H79.991C80.3275 31.6405 80.6961 31.5227 80.6961 31.0205V30.9184C80.6961 30.4161 80.3275 30.2984 79.991 30.2984Z" fill="black"/>
<path d="M117.162 21.4636V27.5852H115.792L113.773 23.7867L113.813 25.0188V27.5852H112.587V21.4636H113.957L115.968 25.2621L115.928 24.03V21.4636H117.162Z" fill="black"/>
<path d="M108.559 21.4479H110.346L111.909 27.5852H110.522L110.218 26.2667H108.687L108.391 27.5852H106.997L108.559 21.4479ZM109.449 22.9155L108.936 25.168H109.961L109.449 22.9155Z" fill="black"/>
<path d="M102.619 21.4636H106.442V22.5623H103.917V23.9122H106.041V25.011H103.917V26.4864H106.442V27.5852H102.619V21.4636Z" fill="black"/>
<path d="M100.343 23.6689L99.2287 27.5852H97.9066L96.7927 23.6689L96.8328 24.8933V27.5852H95.5347V21.4636H97.4498L98.5717 25.3798L99.6855 21.4636H101.609V27.5852H100.311V24.8933L100.343 23.6689Z" fill="black"/>
<path d="M90.5801 27.6872C88.8813 27.6872 88.3364 26.9809 88.3364 25.6467V21.4636H89.6346V25.6074C89.6346 26.2588 89.8429 26.5885 90.5801 26.5885C91.3173 26.5885 91.5337 26.2588 91.5337 25.6074V21.4636H92.8318V25.6467C92.8318 26.9809 92.2789 27.6872 90.5801 27.6872Z" fill="black"/>
<path d="M85.1084 27.6872C83.4898 27.6872 82.7285 26.8004 82.7285 24.6814V24.3675C82.7285 22.2484 83.4898 21.3616 85.1084 21.3616C86.7351 21.3616 87.4963 22.2484 87.4963 24.3675V24.6814C87.4963 26.8004 86.7351 27.6872 85.1084 27.6872ZM85.0764 26.5885H85.1485C85.9498 26.5885 86.1742 25.9057 86.1742 24.6814V24.3675C86.1742 23.1431 85.9498 22.4603 85.1485 22.4603H85.0764C84.2751 22.4603 84.0427 23.1431 84.0427 24.3675V24.6814C84.0427 25.9057 84.2751 26.5885 85.0764 26.5885Z" fill="black"/>
<path d="M80.6561 25.7095V27.5852H79.3579V25.7095L77.563 21.4636H78.9813L80.007 24.1398L81.0247 21.4636H82.443L80.6561 25.7095Z" fill="black"/>
<path d="M100.463 13.7275V19.8491H99.093L97.0736 16.0506L97.1137 17.2828V19.8491H95.8877V13.7275H97.2579L99.2693 17.5261L99.2292 16.2939V13.7275H100.463Z" fill="black"/>
<path d="M91.1182 13.7275H94.9404V14.8263H92.4163V16.1762H94.5398V17.2749H92.4163V18.7504H94.9404V19.8491H91.1182V13.7275Z" fill="black"/>
<path d="M88.7454 13.7275H90.0435V19.8491H88.7454V17.2749H86.9264V19.8491H85.6283V13.7275H86.9264V16.1762H88.7454V13.7275Z" fill="black"/>
<path d="M82.1545 19.8648L81.249 15.1795L80.3435 19.8648H78.6848L77.6511 13.7275H79.0053L79.6063 18.1304L80.4477 13.7275H82.0584L82.8998 18.1304L83.5007 13.7275H84.855L83.8213 19.8648H82.1545Z" fill="black"/>
<path fill-rule="evenodd" clip-rule="evenodd" d="M40.4092 1.57402V7.85102C37.1429 3.5646 31.9237 0.789215 26.0427 0.789215C18.643 0.789215 12.2911 5.18315 9.55856 11.4524V11.2161V1.63011H0V35.4334H9.55856V25.2187C12.2911 31.4879 18.643 35.8818 26.0427 35.8818C31.9237 35.8818 37.1429 33.1065 40.4092 28.82V35.3212H49.7961V25.1747H54.0316L60.9001 35.3212H72.004L63.84 23.6577C65.822 22.7899 67.5894 21.5204 68.7988 19.8491C70.802 17.1583 70.8954 14.972 70.8954 12.3249C70.8954 10.7501 70.5763 9.30375 69.938 7.986C69.3333 6.66825 68.4767 5.54334 67.3681 4.61127C66.2931 3.64707 64.983 2.90784 63.4377 2.3936C61.9259 1.84721 60.2631 1.57402 58.449 1.57402H40.4092ZM32.9411 14.6805L40.4092 12.4081V24.0595L33.0207 21.843C31.7197 24.3207 29.0834 26.0156 26.0429 26.0156C21.7122 26.0156 18.2014 22.5771 18.2014 18.3355C18.2014 14.094 21.7122 10.6555 26.0429 10.6555C29.0226 10.6555 31.6142 12.2833 32.9411 14.6805ZM56.7218 9.87068H49.7961V17.7682H56.7218C58.0655 17.7682 59.1405 17.4147 59.9467 16.7076C60.7866 16.0005 61.2065 15.0845 61.2065 13.9596C61.2065 12.8347 60.7866 11.6384 59.9467 10.9313C59.1405 10.2242 58.0655 9.87068 56.7218 9.87068Z" fill="#FF5A00"/>
</svg>
