<svg width="18" height="15" viewBox="0 0 18 15" fill="none" xmlns="http://www.w3.org/2000/svg">
<path fill-rule="evenodd" clip-rule="evenodd" d="M0 3.25C0 1.73122 1.23122 0.5 2.75 0.5H15.25C16.7688 0.5 18 1.73122 18 3.25V11.75C18 13.2688 16.7688 14.5 15.25 14.5H2.75C1.23122 14.5 0 13.2688 0 11.75V3.25ZM5.5 13H15.25C15.9404 13 16.5 12.4404 16.5 11.75V3.25C16.5 2.55964 15.9404 2 15.25 2H5.5V13ZM4 2V13H2.75C2.05964 13 1.5 12.4404 1.5 11.75V3.25C1.5 2.55964 2.05964 2 2.75 2H4ZM10.7483 4.68944C11.0579 4.96463 11.0857 5.43869 10.8106 5.74827L9.92013 6.75L13.75 6.75C14.1642 6.75 14.5 7.08579 14.5 7.5C14.5 7.91421 14.1642 8.25 13.75 8.25L9.92013 8.25L10.8106 9.25173C11.0857 9.56131 11.0579 10.0354 10.7483 10.3106C10.4387 10.5857 9.96463 10.5579 9.68944 10.2483L7.68944 7.99827C7.43685 7.71411 7.43685 7.28589 7.68944 7.00173L9.68944 4.75173C9.96463 4.44214 10.4387 4.41425 10.7483 4.68944Z" fill="#4A545E"/>
</svg>
