<svg width="64" height="64" viewBox="0 0 64 64" fill="none" xmlns="http://www.w3.org/2000/svg">
<mask id="path-1-inside-1_2299_5747" fill="white">
<path d="M0 0H64V64H0V0Z"/>
</mask>
<path d="M0 0H64V64H0V0Z" fill="white"/>
<path d="M64 63H0V65H64V63Z" fill="#EAEDF0" mask="url(#path-1-inside-1_2299_5747)"/>
<g clip-path="url(#clip0_2299_5747)">
<path d="M12.75 10H18.25C19.7688 10 21 11.2312 21 12.75V18.25C21 19.7688 19.7688 21 18.25 21H12.75C11.2312 21 10 19.7688 10 18.25V12.75C10 11.2312 11.2312 10 12.75 10ZM29.25 43H34.75C36.2688 43 37.5 44.2312 37.5 45.75V51.25C37.5 52.7688 36.2688 54 34.75 54H29.25C27.7312 54 26.5 52.7688 26.5 51.25V45.75C26.5 44.2312 27.7312 43 29.25 43ZM37.5 21V34.75C37.5 36.2688 36.2688 37.5 34.75 37.5H29.25C27.7312 37.5 26.5 36.2688 26.5 34.75V12.75C26.5 11.2312 27.7312 10 29.25 10H51.25C52.7688 10 54 11.2312 54 12.75V18.25C54 19.7688 52.7688 21 51.25 21H37.5Z" fill="#333333"/>
<rect x="-2.375" y="-1" width="70.125" height="74.25" fill="#FF5A00"/>
<path fill-rule="evenodd" clip-rule="evenodd" d="M34.2842 24.1498V27.3468C32.6547 25.1636 30.0511 23.75 27.1173 23.75C23.4256 23.75 20.2567 25.9882 18.8936 29.1817V29.0611V24.1783H14.125V41.3965H18.8936V36.1933C20.2567 39.3868 23.4256 41.625 27.1173 41.625C30.0511 41.625 32.6547 40.2114 34.2842 38.0282V41.3395H38.9672V36.1711H41.0802L44.5067 41.3395H50.0462L45.9733 35.3985C46.9621 34.9564 47.8439 34.3098 48.4472 33.4585C49.4466 32.0879 49.4932 30.9743 49.4932 29.6259C49.4932 28.8237 49.334 28.087 49.0155 27.4158C48.7139 26.7446 48.2865 26.1716 47.7335 25.6968C47.1972 25.2057 46.5436 24.8292 45.7726 24.5672C45.0185 24.2889 44.1889 24.1498 43.2839 24.1498H34.2842ZM30.5586 30.8258L34.2842 29.6683V35.603L30.5983 34.474C29.9493 35.7361 28.634 36.5994 27.1172 36.5994C24.9567 36.5994 23.2052 34.848 23.2052 32.6875C23.2052 30.527 24.9567 28.7756 27.1172 28.7756C28.6037 28.7756 29.8966 29.6047 30.5586 30.8258ZM42.4222 28.3758H38.9672V32.3985H42.4222C43.0926 32.3985 43.6289 32.2185 44.0311 31.8583C44.4501 31.4981 44.6596 31.0316 44.6596 30.4586C44.6596 29.8856 44.4501 29.2762 44.0311 28.9161C43.6289 28.5559 43.0926 28.3758 42.4222 28.3758Z" fill="white"/>
</g>
<defs>
<clipPath id="clip0_2299_5747">
<rect width="44" height="44" fill="white" transform="translate(10 10)"/>
</clipPath>
</defs>
</svg>
